PathFileType	4	(X/Y/Z)	C:/Users/opensim2020/Desktop/walking_exp_matlab/subject06_walking16_straight_01.trc	
DataRate	CameraRate	NumFrames	NumMarkers	Units	OrigDataRate	OrigDataStartFrame	OrigNumFrames	
100.00	100.00	4	51	mm	100.00	1162	333	
Frame#	Time	LFHD			RFHD			LBHD			RBHD			C7			T10			CLAV			STRN			RBAK			LSHO			LUPA			LELB			LFRM			LWRA			LWRB			LFIN			RSHO			RUPA			RELB			RFRM			RWRA			RWRB			RFIN			LASI			RASI			LPSI			RPSI			LTHI			LKNE			LTIB			LANK			LHEE			LTOE			RTHI			RKNE			RTIB			RANK			RHEE			RTOE			*39			*40			*41			*42			*43			*44			*45			*46			*47			*48			*49			*50			
		X1	Y1	Z1	X2	Y2	Z2	X3	Y3	Z3	X4	Y4	Z4	X5	Y5	Z5	X6	Y6	Z6	X7	Y7	Z7	X8	Y8	Z8	X9	Y9	Z9	X10	Y10	Z10	X11	Y11	Z11	X12	Y12	Z12	X13	Y13	Z13	X14	Y14	Z14	X15	Y15	Z15	X16	Y16	Z16	X17	Y17	Z17	X18	Y18	Z18	X19	Y19	Z19	X20	Y20	Z20	X21	Y21	Z21	X22	Y22	Z22	X23	Y23	Z23	X24	Y24	Z24	X25	Y25	Z25	X26	Y26	Z26	X27	Y27	Z27	X28	Y28	Z28	X29	Y29	Z29	X30	Y30	Z30	X31	Y31	Z31	X32	Y32	Z32	X33	Y33	Z33	X34	Y34	Z34	X35	Y35	Z35	X36	Y36	Z36	X37	Y37	Z37	X38	Y38	Z38	X39	Y39	Z39	X40	Y40	Z40	X41	Y41	Z41	X42	Y42	Z42	X43	Y43	Z43	X44	Y44	Z44	X45	Y45	Z45	X46	Y46	Z46	X47	Y47	Z47	X48	Y48	Z48	X49	Y49	Z49	X50	Y50	Z50	X51	Y51	Z51	

292	2.910	-1064.06592	840.34521	1669.81860	-935.29871	822.15826	1648.19080	-1089.26233	714.12189	1606.95544	-962.03436	696.86578	1590.27417	-1033.32141	712.08441	1450.70959	-1027.37610	666.98560	1126.14014	-1030.03162	823.73395	1373.41235	-1043.83008	859.85767	1197.56262	-956.82983	637.98267	1282.70227	-1190.86279	775.48987	1408.79224	-1255.81738	807.88776	1208.16589	-1260.84009	829.24615	1095.94897	-1261.73718	919.52472	973.93732	-1199.15906	1022.47681	912.78589	-1236.39941	978.23242	872.42621	-1223.39160	1055.00317	826.40393	-869.35492	779.03357	1400.40405	-791.49457	732.67877	1199.59924	-785.44635	734.65717	1077.39917	-770.92426	734.35718	956.60101	-803.80078	770.21503	809.72809	-763.26196	717.65729	818.80548	-763.20001	743.32898	737.69421	-1147.13074	828.71851	956.76288	-927.55957	846.15027	968.37091	-1107.39844	675.75153	993.10352	-940.92938	695.55432	996.92603	-1189.03918	716.16394	644.59412	-1166.05615	688.60150	482.21780	-1142.83044	522.28455	285.38925	-1092.77478	429.37296	142.65233	-1042.73450	394.07831	151.92725	-1100.28528	528.63440	35.76912	-861.19006	815.64154	635.85950	-889.74274	839.17242	514.49591	-893.92035	840.19556	248.71794	-942.46948	868.62439	64.51476	-992.19202	836.74585	40.52355	-939.17316	1027.02502	39.29634	-1018.69928	729.96521	1696.36084																																	 
293	2.920	-1062.36292	847.70343	1671.10962	-933.63794	829.58148	1649.33691	-1087.63464	721.61652	1607.96521	-960.43579	704.38446	1591.18347	-1031.57129	719.93823	1451.57837	-1025.52722	675.25623	1127.03931	-1028.52905	831.67725	1374.59900	-1042.17334	868.16394	1198.78027	-954.53967	646.26721	1283.84705	-1189.33105	782.83661	1409.79883	-1254.49451	814.08124	1209.08630	-1259.85156	834.64081	1096.86707	-1261.39392	923.04633	973.40820	-1199.69177	1025.52283	910.47162	-1237.40381	980.78326	871.13275	-1224.65186	1056.79639	823.82825	-867.83020	787.28040	1401.68689	-790.05493	741.15961	1200.80823	-783.84229	743.74689	1078.56201	-769.54712	743.98389	957.78668	-802.73389	780.70990	811.16718	-762.27356	728.13715	819.78204	-762.27203	754.05377	738.83728	-1145.53796	837.02649	957.92334	-926.02484	854.38013	968.98401	-1105.89771	683.90869	994.15527	-939.36786	703.39008	998.00891	-1188.63538	726.14081	645.28192	-1166.65210	700.30963	482.67130	-1142.43958	531.03461	288.82254	-1092.28308	435.94373	147.83759	-1041.67883	401.78314	158.30615	-1099.88733	530.23633	36.19835	-860.54089	821.24353	636.22742	-889.15387	843.68781	514.59235	-893.89081	841.73077	248.73111	-942.72882	868.99719	64.56426	-992.43335	836.88306	40.76720	-939.46564	1027.68298	38.46115	-1017.02435	737.25049	1697.36133																																	 
294	2.930	-1060.81494	854.97675	1672.25195	-932.09125	836.90765	1650.43555	-1086.10596	729.09436	1608.80029	-958.99573	711.92102	1591.97522	-1029.88525	727.75616	1452.44739	-1023.77887	683.57263	1127.75623	-1027.01953	839.54797	1375.65588	-1040.55493	876.25983	1199.82727	-952.70123	654.48688	1284.29858	-1187.90723	790.19427	1410.79211	-1253.39075	819.90155	1209.71936	-1258.82922	839.97186	1097.47937	-1261.68994	926.85986	973.04913	-1200.49097	1028.38867	907.91516	-1238.47644	983.01367	869.62585	-1226.18494	1058.31738	821.01392	-866.26514	795.41632	1402.77991	-788.33630	749.82495	1201.86426	-782.11615	752.79120	1079.54150	-768.06219	753.68347	958.69745	-801.51807	791.23975	812.37683	-761.10370	738.59998	820.65289	-761.30756	764.92456	739.78699	-1143.95496	845.19092	958.99957	-924.57074	862.59387	969.55811	-1104.49011	691.95703	994.94592	-937.86517	711.35107	998.90637	-1188.24597	736.29327	645.95563	-1167.14233	712.25519	483.04645	-1141.96204	539.87122	292.01404	-1092.00964	442.92410	153.05565	-1040.79639	409.94717	164.63332	-1099.49683	532.11957	36.91621	-860.10223	827.14362	636.74377	-888.30469	848.01678	514.76324	-893.71521	843.06238	248.72966	-943.04712	869.30682	64.48847	-992.50763	837.08118	40.84607	-939.98505	1028.05566	37.45039	-1015.46576	744.45471	1698.22974																																	 
295	2.940	-1059.30554	862.19556	1673.26648	-930.60907	844.10199	1651.44873	-1084.70081	736.47150	1609.45300	-957.49268	719.20825	1592.64026	-1028.27136	735.57886	1453.23291	-1022.05573	691.54492	1128.45483	-1025.47266	847.32825	1376.56287	-1038.94141	884.22565	1200.70752	-950.72687	662.46838	1284.97314	-1186.51123	797.50531	1411.47986	-1252.40845	825.44739	1210.12244	-1258.09973	845.06146	1097.88879	-1261.25549	929.69354	971.96539	-1201.45667	1030.93103	905.09119	-1239.60327	984.88177	867.79065	-1227.90198	1059.42407	817.95343	-864.72101	803.45782	1403.68298	-786.67389	758.43439	1202.68640	-780.44208	761.86908	1080.29565	-766.51691	763.49664	959.46558	-800.25262	801.86865	813.44202	-759.79962	749.24890	821.27814	-760.33350	776.30640	740.62292	-1140.81665	855.56763	961.28601	-922.95917	870.48639	969.86700	-1103.11914	699.94720	995.59918	-936.50690	719.29913	999.62610	-1187.88940	746.59589	646.46881	-1167.54944	724.42700	483.31137	-1141.82068	549.83667	295.49710	-1091.92834	450.33401	158.24678	-1040.45227	418.43161	171.10027	-1099.41248	534.26611	38.42096	-859.25659	833.51721	637.38184	-887.25104	852.36749	514.94647	-893.30255	844.52075	248.84099	-943.06403	869.67200	64.68157	-992.56006	837.19830	40.95539	-940.46765	1028.38818	36.69682	-1014.08118	751.56659	1698.95410																																	 
